# xmcd
#
# Track frame offsets:
# 150
# 14032
# 26097
# 39317
# 50507
# 64147
# 74567
# 85290
# 95195
#
# Disc length: 1431 seconds
#
#
# Revision: 2
# Processed by: cddbd v1.5.2PL0 Copyright (c) Steve Scherf et al.
# Submitted via: FreeRIP 2.96 
#
DISCID=81059509
DTITLE=Johnnie Ray - The Best Of Johnnie Ray
DYEAR=1900
DGENRE=Pop
TTITLE0=Cry
TTITLE1=Just Walking In The Rain
TTITLE2=Hey There
TTITLE3=Alexander's Ragtime Band
TTITLE4=Please, Mr. Sun
TTITLE5=The Little White Cloud That Cried
TTITLE6=Walkin' My Baby Back Home
TTITLE7=All Of Me
TTITLE8=Tell The Lady I Said Goodbye
EXTD=
EXTT0=with The Four Lads
EXTT1=
EXTT2=
EXTT3=
EXTT4=
EXTT5=
EXTT6=
EXTT7=
EXTT8=
PLAYORDER=
